<svg width="284" height="126" viewBox="0 0 284 126" fill="none" xmlns="http://www.w3.org/2000/svg">
<g clip-path="url(#clip0_9_4)">
<path d="M201 11.2004V15.7904H240.4C243.02 15.7904 246.97 15.7904 249.6 18.4104C252.23 21.0404 252.23 24.9804 252.23 27.6104V67.0104C252.23 69.6404 252.23 73.5804 249.6 76.2004C246.97 78.8304 243.02 78.8304 240.4 78.8304H221.4C218.12 78.8304 213.84 78.8304 212.2 75.2204C210.57 71.6004 212.854 68.3204 214.84 65.7004L240.44 31.6004H201.04L185.24 52.6004C182.6 56.1204 180.32 59.1704 180.32 63.1004C180.32 67.0404 182.44 69.8804 185.24 73.6004L189.18 78.8504C193.12 84.1004 197.06 89.3504 202.28 91.9504C207.54 94.5604 213.78 94.5604 222.28 94.5604H239.38C249.24 94.5604 263.98 94.5604 273.88 84.7204C283.72 74.8704 283.72 60.4204 283.72 55.2204V39.4204C283.72 34.1604 283.72 19.7204 273.88 9.92043C264.02 0.0604305 249.28 0.0904297 239.38 0.0804297L212.18 0.0654297C209.57 0.0654297 206.27 0.0654294 203.64 2.69543C201.03 5.32543 201.03 8.60543 201.03 11.2354" fill="white"/>
<path d="M154 31.5H193L146 94.5H106L154 31.5Z" fill="white"/>
<path d="M0.000117183 42.7C0.000117183 40.08 0.000117302 36.79 2.63012 34.16C5.25012 31.54 8.55012 31.54 11.1701 31.54H77.1701C85.7001 31.54 91.9701 31.54 97.1701 34.16C102.41 36.8 106.35 42.05 110.27 47.26L114.22 52.51C117.03 56.24 119.16 59.08 119.16 63.01C119.16 66.95 116.86 70 114.22 73.51L98.4201 94.51H59.0201L84.6201 60.41C86.5901 57.78 88.9001 54.51 87.2501 50.89C85.6201 47.29 81.3501 47.29 78.0701 47.29H47.1701V126.09H15.6701V47.29H-0.129883V42.69" fill="white"/>
</g>
<defs>
<clipPath id="clip0_9_4">
<rect width="284" height="126" fill="white"/>
</clipPath>
</defs>
</svg>
